HIERARCHY
ROOT Hips
{
	OFFSET 0.000000 35.069874 -0.029489
	CHANNELS 6 Xposition Yposition Zposition Xrotation Yrotation Zrotation 
	JOINT Spine
	{
		OFFSET 0.000000 6.876060 0.125662
		CHANNELS 3 Xrotation Yrotation Zrotation
		JOINT Spine1
		{
			OFFSET 0.000000 5.730046 0.104717
			CHANNELS 3 Xrotation Yrotation Zrotation
			JOINT Spine1_split
			{
				OFFSET 0.000000 5.730046 0.104717
				CHANNELS 3 Xrotation Yrotation Zrotation
				JOINT Spine2
				{
					OFFSET 0.000000 5.730046 0.104717
					CHANNELS 3 Xrotation Yrotation Zrotation
					JOINT Neck
					{
						OFFSET 0.000000 10.314075 0.188489
						CHANNELS 3 Xrotation Yrotation Zrotation
						JOINT Head
						{
							OFFSET 0.000000 7.643753 -2.377445
							CHANNELS 3 Xrotation Yrotation Zrotation
							JOINT HeadTop_End
							{
								OFFSET 0.000000 43.788605 -13.619637
								CHANNELS 3 Xrotation Yrotation Zrotation
								End Site
								{
									OFFSET 0.000000 0.000000 0.000000
								}
							}
						}
					}
					JOINT LeftShoulder
					{
						OFFSET 2.196093 4.412501 0.087498
						CHANNELS 3 Xrotation Yrotation Zrotation
						JOINT LeftShoulder_split
						{
							OFFSET 2.196093 4.412501 0.087498
							CHANNELS 3 Xrotation Yrotation Zrotation
							JOINT LeftArm
							{
								OFFSET 8.774866 -2.970879 -0.026997
								CHANNELS 3 Xrotation Yrotation Zrotation
								JOINT LeftForeArm
								{
									OFFSET 8.450586 -0.797432 -0.648343
									CHANNELS 3 Xrotation Yrotation Zrotation
									JOINT LeftHand
									{
										OFFSET 18.458662 0.962311 0.193148
										CHANNELS 3 Xrotation Yrotation Zrotation
										JOINT LeftHandThumb1
										{
											OFFSET 2.379990 -1.333382 2.680594
											CHANNELS 3 Xrotation Yrotation Zrotation
											JOINT LeftHandThumb2
											{
												OFFSET 1.903984 -1.066746 2.144473
												CHANNELS 3 Xrotation Yrotation Zrotation
												JOINT LeftHandThumb3
												{
													OFFSET 0.966393 -1.489639 2.964555
													CHANNELS 3 Xrotation Yrotation Zrotation
													JOINT LeftHandThumb4
													{
														OFFSET 1.205181 -0.823021 1.625701
														CHANNELS 3 Xrotation Yrotation Zrotation
														End Site
														{
															OFFSET 0.000000 0.000000 0.000000
														}
													}
												}
											}
										}
										JOINT LeftHandIndex1
										{
											OFFSET 7.830624 -0.787468 2.563931
											CHANNELS 3 Xrotation Yrotation Zrotation
											JOINT LeftHandIndex2
											{
												OFFSET 3.312897 -0.052605 1.515312
												CHANNELS 3 Xrotation Yrotation Zrotation
												JOINT LeftHandIndex3
												{
													OFFSET 3.460667 -0.207008 1.581951
													CHANNELS 3 Xrotation Yrotation Zrotation
													JOINT LeftHandIndex4
													{
														OFFSET 2.183182 0.110458 0.999585
														CHANNELS 3 Xrotation Yrotation Zrotation
														End Site
														{
															OFFSET 0.000000 0.000000 0.000000
														}
													}
												}
											}
										}
										JOINT LeftHandMiddle1
										{
											OFFSET 8.556145 -0.261200 0.258753
											CHANNELS 3 Xrotation Yrotation Zrotation
											JOINT LeftHandMiddle2
											{
												OFFSET 3.828903 -0.489014 -0.111505
												CHANNELS 3 Xrotation Yrotation Zrotation
												JOINT LeftHandMiddle3
												{
													OFFSET 3.696209 -0.166595 -0.107596
													CHANNELS 3 Xrotation Yrotation Zrotation
													JOINT LeftHandMiddle4
													{
														OFFSET 2.259281 0.534500 -0.065675
														CHANNELS 3 Xrotation Yrotation Zrotation
														End Site
														{
															OFFSET 0.000000 0.000000 0.000000
														}
													}
												}
											}
										}
										JOINT LeftHandRing1
										{
											OFFSET 8.509293 -0.556679 -3.044941
											CHANNELS 3 Xrotation Yrotation Zrotation
											JOINT LeftHandRing2
											{
												OFFSET 2.995171 -0.303261 -0.843591
												CHANNELS 3 Xrotation Yrotation Zrotation
												JOINT LeftHandRing3
												{
													OFFSET 2.968273 -0.101997 -0.834287
													CHANNELS 3 Xrotation Yrotation Zrotation
													JOINT LeftHandRing4
													{
														OFFSET 1.521358 -0.461468 -0.418735
														CHANNELS 3 Xrotation Yrotation Zrotation
														End Site
														{
															OFFSET 0.000000 0.000000 0.000000
														}
													}
												}
											}
										}
									}
								}
							}
						}
					}
					JOINT RightShoulder
					{
						OFFSET -2.196075 4.412512 0.070694
						CHANNELS 3 Xrotation Yrotation Zrotation
						JOINT RightShoulder_split
						{
							OFFSET -2.196075 4.412512 0.070694
							CHANNELS 3 Xrotation Yrotation Zrotation
							JOINT RightArm
							{
								OFFSET -8.774886 -2.970947 -0.094209
								CHANNELS 3 Xrotation Yrotation Zrotation
								JOINT RightForeArm
								{
									OFFSET -8.450586 -0.797386 -0.330665
									CHANNELS 3 Xrotation Yrotation Zrotation
									JOINT RightHand
									{
										OFFSET -18.458664 0.962341 0.025780
										CHANNELS 3 Xrotation Yrotation Zrotation
										JOINT RightHandThumb1
										{
											OFFSET -2.390282 -1.240040 2.604684
											CHANNELS 3 Xrotation Yrotation Zrotation
											JOINT RightHandThumb2
											{
												OFFSET -1.912228 -0.992111 2.083740
												CHANNELS 3 Xrotation Yrotation Zrotation
												JOINT RightHandThumb3
												{
													OFFSET -0.876358 -1.555370 2.930126
													CHANNELS 3 Xrotation Yrotation Zrotation
													JOINT RightHandThumb4
													{
														OFFSET -1.227077 -0.755932 1.835223
														CHANNELS 3 Xrotation Yrotation Zrotation
														End Site
														{
															OFFSET 0.000000 0.000000 0.000000
														}
													}
												}
											}
										}
										JOINT RightHandIndex1
										{
											OFFSET -8.716801 -0.633743 3.098187
											CHANNELS 3 Xrotation Yrotation Zrotation
											JOINT RightHandIndex2
											{
												OFFSET -3.319706 -0.240585 1.198087
												CHANNELS 3 Xrotation Yrotation Zrotation
												JOINT RightHandIndex3
												{
													OFFSET -3.153255 -0.154724 1.138827
													CHANNELS 3 Xrotation Yrotation Zrotation
													JOINT RightHandIndex4
													{
														OFFSET -1.818684 -0.003197 0.655154
														CHANNELS 3 Xrotation Yrotation Zrotation
														End Site
														{
															OFFSET 0.000000 0.000000 0.000000
														}
													}
												}
											}
										}
										JOINT RightHandMiddle1
										{
											OFFSET -8.158691 -0.528496 0.196552
											CHANNELS 3 Xrotation Yrotation Zrotation
											JOINT RightHandMiddle2
											{
												OFFSET -3.890194 -0.261169 -0.136423
												CHANNELS 3 Xrotation Yrotation Zrotation
												JOINT RightHandMiddle3
												{
													OFFSET -3.903057 -0.179909 -0.137173
													CHANNELS 3 Xrotation Yrotation Zrotation
													JOINT RightHandMiddle4
													{
														OFFSET -2.366261 0.198380 -0.083987
														CHANNELS 3 Xrotation Yrotation Zrotation
														End Site
														{
															OFFSET 0.000000 0.000000 0.000000
														}
													}
												}
											}
										}
										JOINT RightHandRing1
										{
											OFFSET -7.616104 -0.395126 -2.681268
											CHANNELS 3 Xrotation Yrotation Zrotation
											JOINT RightHandRing2
											{
												OFFSET -3.235790 -0.462120 -1.101476
												CHANNELS 3 Xrotation Yrotation Zrotation
												JOINT RightHandRing3
												{
													OFFSET -3.179264 -0.138618 -1.084847
													CHANNELS 3 Xrotation Yrotation Zrotation
													JOINT RightHandRing4
													{
														OFFSET -1.963291 -0.101624 -0.668250
														CHANNELS 3 Xrotation Yrotation Zrotation
														End Site
														{
															OFFSET 0.000000 0.000000 0.000000
														}
													}
												}
											}
										}
									}
								}
							}
						}
					}
				}
			}
		}
	}
	JOINT LeftUpLeg
	{
		OFFSET 10.205382 -3.823519 0.155145
		CHANNELS 3 Xrotation Yrotation Zrotation
		JOINT LeftLeg
		{
			OFFSET 0.283732 -12.998343 0.567794
			CHANNELS 3 Xrotation Yrotation Zrotation
			JOINT LeftFoot
			{
				OFFSET -1.058953 -10.688869 -2.184322
				CHANNELS 3 Xrotation Yrotation Zrotation
				JOINT LeftToeBase
				{
					OFFSET 0.108145 -7.191069 7.560211
					CHANNELS 3 Xrotation Yrotation Zrotation
					JOINT LeftToe_End
					{
						OFFSET 0.070226 0.081726 4.490266
						CHANNELS 3 Xrotation Yrotation Zrotation
						End Site
						{
							OFFSET 0.000000 0.000000 0.000000
						}
					}
				}
			}
		}
	}
	JOINT RightUpLeg
	{
		OFFSET -10.205383 -3.823513 0.005508
		CHANNELS 3 Xrotation Yrotation Zrotation
		JOINT RightLeg
		{
			OFFSET -0.283728 -12.998341 0.610627
			CHANNELS 3 Xrotation Yrotation Zrotation
			JOINT RightFoot
			{
				OFFSET 1.058956 -10.688892 -1.945833
				CHANNELS 3 Xrotation Yrotation Zrotation
				JOINT RightToeBase
				{
					OFFSET -0.108150 -7.191040 7.372945
					CHANNELS 3 Xrotation Yrotation Zrotation
					JOINT RightToe_End
					{
						OFFSET -0.070229 0.081738 4.479398
						CHANNELS 3 Xrotation Yrotation Zrotation
						End Site
						{
							OFFSET 0.000000 0.000000 0.000000
						}
					}
				}
			}
		}
	}
}
MOTION
Frames: 4
Frame Time: 0.016667
-0.426601 33.942616 -0.455754 4.451631 16.265798 -2.107313 -9.089720 -9.791910 1.025819 4.636104 -1.592020 -0.303831 0.000000 0.000000 0.000000 4.616004 -1.618329 -0.429757 3.210326 -2.116575 2.121248 7.396627 -7.821495 0.693632 -0.000002 -0.000000 -0.000000 1.305230 -1.808911 2.136837 0.000000 0.000000 0.000000 -23.499505 -41.623538 -52.427330 24.193199 -102.956953 21.976719 30.872465 -30.121787 34.831864 8.214601 18.317411 1.845437 1.604150 37.312319 11.531051 -1.089108 -8.696765 -5.970393 -0.000002 -0.000001 -0.000000 3.340045 23.461329 -6.648703 1.250776 0.736253 -2.642628 3.491422 0.195166 -7.596162 -0.000001 -0.000002 0.000001 -0.193412 -2.546881 0.353498 -0.140163 0.866183 -9.891791 -0.499006 0.512924 -18.465686 -0.000001 -0.000001 0.000001 -1.443786 -16.497994 -1.443495 -2.255226 1.126257 -8.506849 3.189553 1.077767 11.329059 -0.000000 0.000000 -0.000001 -0.063079 -9.130674 7.977880 0.000000 0.000000 0.000000 3.212028 -10.615840 38.166001 12.991324 112.767270 -11.164970 28.839296 -18.046186 23.130109 9.203276 -12.248069 0.137617 0.227307 -41.159656 -13.811059 3.160761 8.845394 7.708345 -0.000002 0.000001 0.000002 4.988178 -19.360849 10.531322 4.046746 -0.936114 10.749052 2.632366 -0.440245 7.180403 0.000002 -0.000001 0.000001 -0.333698 1.804686 9.996497 -0.154457 -1.573645 11.315574 -0.368981 -0.803978 12.477326 -0.000000 -0.000002 0.000000 -3.807492 18.083593 6.437626 -4.534120 -2.421304 14.545730 -1.400230 -1.035629 4.346896 -0.000001 -0.000001 0.000001 -9.933912 10.331668 -6.298689 28.440121 9.561949 -0.073193 -20.874342 -2.875662 12.940076 -6.791714 -0.000029 0.000008 -0.000001 -0.000000 0.000000 -11.238783 -8.335666 4.251696 28.405637 -0.349045 -7.992418 -17.360886 -0.685877 1.378411 -7.343836 -0.000007 0.000008 0.000000 0.000001 0.000000 
-0.307903 33.960159 -0.424330 5.120965 17.972779 -3.207771 -9.946141 -10.348133 0.624028 5.009729 -1.598641 0.816572 0.000000 0.000000 0.000000 5.012418 -1.653337 0.675421 2.880193 -2.291888 1.783467 7.576901 -8.889891 -0.176367 0.000002 0.000000 0.000000 1.122201 -1.375034 2.799454 0.000000 0.000000 0.000000 -22.218346 -45.191158 -50.689832 24.331002 -102.890946 22.111119 28.782987 -31.390016 33.844707 8.215052 18.320789 1.844479 1.604151 37.312319 11.531059 -1.089115 -8.696770 -5.970388 -0.000003 0.000005 -0.000001 3.380140 23.469852 -6.741910 1.288900 0.747777 -2.723498 3.510328 0.199335 -7.636691 0.000003 0.000003 -0.000002 -0.194208 -2.533076 0.268605 -0.139547 0.880808 -9.980326 -0.499567 0.520579 -18.509860 -0.000000 0.000000 -0.000004 -1.465820 -16.482319 -1.531604 -2.276017 1.145382 -8.591581 3.178683 1.083327 11.286112 -0.000000 -0.000000 0.000000 -0.110424 -10.118197 8.437347 0.000000 0.000000 0.000000 2.284694 -13.620011 36.847621 13.711012 111.712614 -11.832020 27.754662 -19.449664 20.513887 9.275448 -13.397137 0.149994 0.269741 -41.869842 -13.809955 3.260103 8.504126 7.714013 0.000000 -0.000003 0.000001 4.988176 -19.360849 10.531322 4.046742 -0.936114 10.749058 2.632367 -0.440250 7.180405 -0.000001 0.000001 0.000002 -0.333699 1.804687 9.996501 -0.154463 -1.573644 11.315570 -0.368983 -0.803979 12.477329 0.000000 -0.000001 -0.000001 -3.807495 18.083590 6.437627 -4.534119 -2.421303 14.545726 -1.400234 -1.035633 4.346893 -0.000001 -0.000001 -0.000001 -14.644673 10.648069 -4.627855 34.163192 7.091770 1.136841 -19.985910 -2.014938 10.183660 -9.758146 -0.000021 0.000009 -0.000000 0.000001 -0.000000 -8.426598 -7.820894 4.117820 23.046998 -0.978638 -5.719658 -16.261726 -0.614912 1.523694 -5.987285 -0.000012 0.000008 0.000000 0.000000 0.000000 
-0.174106 33.920563 -0.398459 5.838083 19.282220 -4.354124 -10.664268 -10.588687 0.480694 5.259095 -1.547637 1.776885 0.000000 0.000000 0.000000 5.282380 -1.631459 1.628382 2.552512 -2.484928 1.482319 7.859773 -10.020501 -1.000447 0.000001 -0.000000 -0.000000 1.186079 -1.425570 3.488298 0.000000 0.000000 0.000000 -20.617930 -48.408406 -48.149695 24.259614 -102.925063 22.041475 29.518350 -30.986212 34.802911 8.214992 18.323075 1.844874 1.604138 37.312323 11.531052 -1.089119 -8.696771 -5.970394 0.000002 -0.000001 0.000002 3.400021 23.474056 -6.788130 1.307326 0.753317 -2.762591 3.519468 0.201349 -7.656281 0.000002 -0.000001 -0.000001 -0.194581 -2.526236 0.226518 -0.139242 0.887877 -10.023078 -0.499851 0.524266 -18.531242 -0.000000 -0.000000 0.000002 -1.476738 -16.474555 -1.575278 -2.286037 1.154659 -8.632529 3.173415 1.085991 11.265351 0.000000 -0.000000 -0.000003 -0.134187 -11.010187 8.978166 0.000000 0.000000 0.000000 1.141003 -16.435749 35.662743 14.705761 110.404339 -12.761477 26.305627 -21.153849 17.190825 9.397242 -15.313718 0.174090 0.411042 -44.174624 -13.801260 3.582152 7.396712 7.736488 -0.000001 -0.000003 0.000003 4.988176 -19.360853 10.531321 4.046745 -0.936112 10.749058 2.632363 -0.440248 7.180406 -0.000002 -0.000001 0.000001 -0.333700 1.804686 9.996499 -0.154460 -1.573647 11.315570 -0.368986 -0.803977 12.477332 0.000001 -0.000000 0.000002 -3.807498 18.083593 6.437624 -4.534121 -2.421303 14.545728 -1.400224 -1.035633 4.346900 0.000004 -0.000001 0.000004 -21.056309 10.171420 -1.983601 41.475463 3.689465 2.052831 -16.682932 -0.470052 4.931876 -15.767683 -0.000051 0.000004 -0.000000 0.000003 0.000001 -6.118247 -7.510604 4.160543 18.531304 -1.916789 -3.623974 -15.291095 -0.501619 1.191225 -4.952097 -0.000009 0.000009 -0.000000 -0.000000 -0.000000 
-0.047481 33.858166 -0.378499 6.536775 20.139106 -5.488895 -11.174688 -10.515497 0.745998 5.330512 -1.459976 2.381429 0.000000 0.000000 0.000000 5.365315 -1.564757 2.234581 2.340010 -2.696115 1.292712 8.182996 -11.133918 -1.482075 0.000000 0.000000 0.000000 1.308542 -1.578331 4.163363 0.000000 0.000000 0.000000 -18.539935 -51.411729 -44.998154 24.048311 -103.027168 21.835481 31.355974 -29.851120 36.595703 8.214776 18.324651 1.845625 1.604144 37.312326 11.531055 -1.089110 -8.696769 -5.970391 0.000001 -0.000001 -0.000001 3.409154 23.475985 -6.809329 1.315496 0.755774 -2.779915 3.523513 0.202243 -7.664967 -0.000001 -0.000001 -0.000001 -0.194752 -2.523079 0.207212 -0.139108 0.890999 -10.042041 -0.499961 0.525908 -18.540685 0.000000 -0.000000 -0.000000 -1.481739 -16.470970 -1.595322 -2.290482 1.158756 -8.650670 3.171087 1.087181 11.256149 -0.000001 -0.000002 0.000002 -0.170245 -11.858341 9.672545 0.000000 0.000000 0.000000 -0.230838 -18.907442 34.581623 16.132567 108.780509 -14.107150 24.952623 -22.286159 14.193913 9.545292 -17.600962 0.208741 0.613242 -47.301751 -13.775469 4.018675 5.894396 7.776892 -0.000002 -0.000001 0.000001 4.988177 -19.360847 10.531320 4.046747 -0.936117 10.749058 2.632373 -0.440246 7.180401 0.000002 -0.000001 -0.000001 -0.333699 1.804680 9.996500 -0.154461 -1.573648 11.315568 -0.368983 -0.803976 12.477325 0.000001 0.000001 -0.000001 -3.807496 18.083590 6.437624 -4.534119 -2.421299 14.545726 -1.400230 -1.035631 4.346896 -0.000003 -0.000002 0.000003 -26.585200 9.901234 -0.784474 46.989489 0.089390 2.968067 -13.845475 -0.354441 4.872126 -19.985055 -0.000048 -0.000005 0.000000 -0.000000 0.000000 -3.992192 -7.560514 4.583241 14.376594 -2.959015 -2.032082 -14.350719 -0.348823 0.478517 -4.053105 -0.000002 0.000009 -0.000000 -0.000000 0.000000 
